<svg width="197" height="56" viewBox="0 0 197 56" fill="none" xmlns="http://www.w3.org/2000/svg">
<path d="M95.223 14.915V41H87.971V26.607L83.05 41H76.982L72.024 26.496V41H64.772V14.915H73.541L80.09 31.861L86.491 14.915H95.223ZM98.1671 30.603C98.1671 28.457 98.5494 26.5823 99.3141 24.979C100.103 23.3757 101.164 22.1423 102.496 21.279C103.853 20.4157 105.357 19.984 107.01 19.984C108.441 19.984 109.674 20.2677 110.71 20.835C111.746 21.4023 112.548 22.167 113.115 23.129V20.243H120.367V41H113.115V38.114C112.548 39.076 111.734 39.8407 110.673 40.408C109.637 40.9753 108.416 41.259 107.01 41.259C105.357 41.259 103.853 40.8273 102.496 39.964C101.164 39.1007 100.103 37.8673 99.3141 36.264C98.5494 34.636 98.1671 32.749 98.1671 30.603ZM113.115 30.603C113.115 29.271 112.745 28.2227 112.005 27.458C111.29 26.6933 110.402 26.311 109.341 26.311C108.256 26.311 107.355 26.6933 106.64 27.458C105.925 28.198 105.567 29.2463 105.567 30.603C105.567 31.935 105.925 32.9957 106.64 33.785C107.355 34.5497 108.256 34.932 109.341 34.932C110.402 34.932 111.29 34.5497 112.005 33.785C112.745 33.0203 113.115 31.9597 113.115 30.603ZM131.752 23.906C132.566 22.722 133.552 21.7847 134.712 21.094C135.871 20.4033 137.117 20.058 138.449 20.058V27.791H136.414C134.835 27.791 133.663 28.0993 132.899 28.716C132.134 29.3327 131.752 30.4057 131.752 31.935V41H124.5V20.243H131.752V23.906ZM144.711 18.319C143.429 18.319 142.393 17.9737 141.603 17.283C140.839 16.5677 140.456 15.6797 140.456 14.619C140.456 13.5337 140.839 12.6333 141.603 11.918C142.393 11.2027 143.429 10.845 144.711 10.845C145.969 10.845 146.981 11.2027 147.745 11.918C148.535 12.6333 148.929 13.5337 148.929 14.619C148.929 15.6797 148.535 16.5677 147.745 17.283C146.981 17.9737 145.969 18.319 144.711 18.319ZM148.3 20.243V41H141.048V20.243H148.3ZM151.246 30.603C151.246 28.457 151.69 26.5823 152.578 24.979C153.466 23.3757 154.7 22.1423 156.278 21.279C157.882 20.4157 159.707 19.984 161.754 19.984C164.394 19.984 166.614 20.7117 168.414 22.167C170.215 23.5977 171.374 25.608 171.892 28.198H164.196C163.752 26.8413 162.889 26.163 161.606 26.163C160.694 26.163 159.966 26.5453 159.423 27.31C158.905 28.05 158.646 29.1477 158.646 30.603C158.646 32.0583 158.905 33.1683 159.423 33.933C159.966 34.6977 160.694 35.08 161.606 35.08C162.914 35.08 163.777 34.4017 164.196 33.045H171.892C171.374 35.6103 170.215 37.6207 168.414 39.076C166.614 40.5313 164.394 41.259 161.754 41.259C159.707 41.259 157.882 40.8273 156.278 39.964C154.7 39.1007 153.466 37.8673 152.578 36.264C151.69 34.6607 151.246 32.7737 151.246 30.603ZM184.562 41.259C182.49 41.259 180.627 40.8273 178.975 39.964C177.347 39.1007 176.064 37.8673 175.127 36.264C174.189 34.6607 173.721 32.7737 173.721 30.603C173.721 28.457 174.189 26.5823 175.127 24.979C176.089 23.3757 177.384 22.1423 179.012 21.279C180.664 20.4157 182.527 19.984 184.599 19.984C186.671 19.984 188.521 20.4157 190.149 21.279C191.801 22.1423 193.096 23.3757 194.034 24.979C194.996 26.5823 195.477 28.457 195.477 30.603C195.477 32.749 194.996 34.636 194.034 36.264C193.096 37.8673 191.801 39.1007 190.149 39.964C188.496 40.8273 186.634 41.259 184.562 41.259ZM184.562 34.969C185.573 34.969 186.412 34.599 187.078 33.859C187.768 33.0943 188.114 32.009 188.114 30.603C188.114 29.197 187.768 28.124 187.078 27.384C186.412 26.644 185.585 26.274 184.599 26.274C183.612 26.274 182.786 26.644 182.12 27.384C181.454 28.124 181.121 29.197 181.121 30.603C181.121 32.0337 181.441 33.119 182.083 33.859C182.724 34.599 183.55 34.969 184.562 34.969Z" fill="white"/>
<path fill-rule="evenodd" clip-rule="evenodd" d="M0.700012 27.0481V45.8481H17.124V43.1881L0.700012 27.0481Z" fill="#326CF9"/>
<path fill-rule="evenodd" clip-rule="evenodd" d="M29.391 45.852H45.813V27.052L29.395 43.193L29.391 45.852Z" fill="#326CF9"/>
<path fill-rule="evenodd" clip-rule="evenodd" d="M45.815 3.844L23.305 25.971L0.700012 3.75V22.87L23.305 45.091L45.811 22.968L45.815 3.844Z" fill="#326CF9"/>
</svg>
